<svg id="visual" viewBox="0 0 960 540" width="960" height="540" xmlns="http://www.w3.org/2000/svg" xmlns:xlink="http://www.w3.org/1999/xlink" version="1.1"><path d="M0 87L16 82.5C32 78 64 69 96 70C128 71 160 82 192 83.8C224 85.7 256 78.3 288 81.8C320 85.3 352 99.7 384 106C416 112.3 448 110.7 480 109C512 107.3 544 105.7 576 97.5C608 89.3 640 74.7 672 68.3C704 62 736 64 768 60.5C800 57 832 48 864 55.2C896 62.3 928 85.7 944 97.3L960 109L960 0L944 0C928 0 896 0 864 0C832 0 800 0 768 0C736 0 704 0 672 0C640 0 608 0 576 0C544 0 512 0 480 0C448 0 416 0 384 0C352 0 320 0 288 0C256 0 224 0 192 0C160 0 128 0 96 0C64 0 32 0 16 0L0 0Z" fill="#48cae4"></path><path d="M0 114L16 109.5C32 105 64 96 96 101.5C128 107 160 127 192 128C224 129 256 111 288 110C320 109 352 125 384 136.7C416 148.3 448 155.7 480 154C512 152.3 544 141.7 576 128.2C608 114.7 640 98.3 672 90.2C704 82 736 82 768 78.3C800 74.7 832 67.3 864 80.8C896 94.3 928 128.7 944 145.8L960 163L960 107L944 95.3C928 83.7 896 60.3 864 53.2C832 46 800 55 768 58.5C736 62 704 60 672 66.3C640 72.7 608 87.3 576 95.5C544 103.7 512 105.3 480 107C448 108.7 416 110.3 384 104C352 97.7 320 83.3 288 79.8C256 76.3 224 83.7 192 81.8C160 80 128 69 96 68C64 67 32 76 16 80.5L0 85Z" fill="#00abd8"></path><path d="M0 249L16 251.8C32 254.7 64 260.3 96 254.2C128 248 160 230 192 217.3C224 204.7 256 197.3 288 203.5C320 209.7 352 229.3 384 253.7C416 278 448 307 480 295.3C512 283.7 544 231.3 576 223.2C608 215 640 251 672 252C704 253 736 219 768 197.5C800 176 832 167 864 179.5C896 192 928 226 944 243L960 260L960 161L944 143.8C928 126.7 896 92.3 864 78.8C832 65.3 800 72.7 768 76.3C736 80 704 80 672 88.2C640 96.3 608 112.7 576 126.2C544 139.7 512 150.3 480 152C448 153.7 416 146.3 384 134.7C352 123 320 107 288 108C256 109 224 127 192 126C160 125 128 105 96 99.5C64 94 32 103 16 107.5L0 112Z" fill="#008bc8"></path><path d="M0 341L16 339.2C32 337.3 64 333.7 96 326.5C128 319.3 160 308.7 192 302.5C224 296.3 256 294.7 288 301.8C320 309 352 325 384 340.2C416 355.3 448 369.7 480 351.7C512 333.7 544 283.3 576 272.7C608 262 640 291 672 300C704 309 736 298 768 286.2C800 274.3 832 261.7 864 261.7C896 261.7 928 274.3 944 280.7L960 287L960 258L944 241C928 224 896 190 864 177.5C832 165 800 174 768 195.5C736 217 704 251 672 250C640 249 608 213 576 221.2C544 229.3 512 281.7 480 293.3C448 305 416 276 384 251.7C352 227.3 320 207.7 288 201.5C256 195.3 224 202.7 192 215.3C160 228 128 246 96 252.2C64 258.3 32 252.7 16 249.8L0 247Z" fill="#006ab3"></path><path d="M0 422L16 416.7C32 411.3 64 400.7 96 387.2C128 373.7 160 357.3 192 349.2C224 341 256 341 288 350C320 359 352 377 384 392.3C416 407.7 448 420.3 480 406C512 391.7 544 350.3 576 335C608 319.7 640 330.3 672 342C704 353.7 736 366.3 768 358.3C800 350.3 832 321.7 864 314.5C896 307.3 928 321.7 944 328.8L960 336L960 285L944 278.7C928 272.3 896 259.7 864 259.7C832 259.7 800 272.3 768 284.2C736 296 704 307 672 298C640 289 608 260 576 270.7C544 281.3 512 331.7 480 349.7C448 367.7 416 353.3 384 338.2C352 323 320 307 288 299.8C256 292.7 224 294.3 192 300.5C160 306.7 128 317.3 96 324.5C64 331.7 32 335.3 16 337.2L0 339Z" fill="#004a9a"></path><path d="M0 487L16 488.8C32 490.7 64 494.3 96 498.8C128 503.3 160 508.7 192 508.7C224 508.7 256 503.3 288 498C320 492.7 352 487.3 384 488.2C416 489 448 496 480 497.7C512 499.3 544 495.7 576 496.7C608 497.7 640 503.3 672 508.8C704 514.3 736 519.7 768 514.2C800 508.7 832 492.3 864 487.8C896 483.3 928 490.7 944 494.3L960 498L960 334L944 326.8C928 319.7 896 305.3 864 312.5C832 319.7 800 348.3 768 356.3C736 364.3 704 351.7 672 340C640 328.3 608 317.7 576 333C544 348.3 512 389.7 480 404C448 418.3 416 405.7 384 390.3C352 375 320 357 288 348C256 339 224 339 192 347.2C160 355.3 128 371.7 96 385.2C64 398.7 32 409.3 16 414.7L0 420Z" fill="#00297d"></path><path d="M0 541L16 541C32 541 64 541 96 541C128 541 160 541 192 541C224 541 256 541 288 541C320 541 352 541 384 541C416 541 448 541 480 541C512 541 544 541 576 541C608 541 640 541 672 541C704 541 736 541 768 541C800 541 832 541 864 541C896 541 928 541 944 541L960 541L960 496L944 492.3C928 488.7 896 481.3 864 485.8C832 490.3 800 506.7 768 512.2C736 517.7 704 512.3 672 506.8C640 501.3 608 495.7 576 494.7C544 493.7 512 497.3 480 495.7C448 494 416 487 384 486.2C352 485.3 320 490.7 288 496C256 501.3 224 506.7 192 506.7C160 506.7 128 501.3 96 496.8C64 492.3 32 488.7 16 486.8L0 485Z" fill="#03045e"></path></svg>